# xmcd
#
# Track frame offsets:
#	150
#	21990
#	37954
#	60292
#	82759
#	102016
#	127655
#	150153
#	163836
#	184093
#
# Disc length: 2731 seconds
#
# Revision: 0
# Processed by: cddbd v1.4PL0 Copyright (c) Steve Scherf et al.
# Submitted via: dBpowerAMP V4.0
#
DISCID=610aa90a
DTITLE=Jeff Williams and The Clear Spacemen - White Under Green 
DYEAR=2001
DGENRE=Altern. Country
TTITLE0=No One's Substitute
TTITLE1=All Around You
TTITLE2=Broken Into One
TTITLE3=Cold Country Blues
TTITLE4=I'm Staying At The Continental And Must See You At Once
TTITLE5=Maybe You're Gonna Come looking For Me In My Dreams
TTITLE6=Evil Angels
TTITLE7=Stranger To Your Love
TTITLE8=The Hardest Thing I've Ever Had To Say
TTITLE9=White Under Green
EXTD=
EXTT0=
EXTT1=
EXTT2=
EXTT3=
EXTT4=
EXTT5=
EXTT6=
EXTT7=
EXTT8=
EXTT9=
PLAYORDER=
